<svg width="128" height="128" viewBox="0 0 128 128" fill="none" xmlns="http://www.w3.org/2000/svg">
<path d="M112 34H16C11.5817 34 8 37.5817 8 42V108C8 112.418 11.5817 116 16 116H112C116.418 116 120 112.418 120 108V42C120 37.5817 116.418 34 112 34Z" fill="url(#paint0_linear_1_54)"/>
<path d="M112 12H16C11.5817 12 8 16.2981 8 21.6V98.4C8 103.702 11.5817 108 16 108H112C116.418 108 120 103.702 120 98.4V21.6C120 16.2981 116.418 12 112 12Z" fill="#DEDDDA"/>
<path d="M112 104H16C13.7909 104 12 101.811 12 99.1111V20.8889C12 18.1888 13.7909 16 16 16H112C114.209 16 116 18.1888 116 20.8889V99.1111C116 101.811 114.209 104 112 104Z" fill="#241F31"/>
<path opacity="0.05" d="M16 100H112V37H16V100Z" fill="url(#paint1_radial_1_54)"/>
<path d="M25.0061 41.4438L18 37.6359V40L22.8554 42.3148V42.3859L18 45V47.3641L25.0061 43.2568V41.4438Z" fill="white"/>
<path d="M27 48L27 50H35V48H27Z" fill="white"/>
<path d="M66 16H62V108H66V16Z" fill="#DEDDDA"/>
<path d="M118 62V58H64V62H118Z" fill="#DEDDDA"/>
<path d="M78.0062 41.4438L71 37.6359V40L75.8554 42.3148V42.3859L71 45V47.3641L78.0062 43.2568V41.4438Z" fill="white"/>
<path d="M80 48L80 50H88V48H80Z" fill="white"/>
<path d="M78.0062 88.4438L71 84.6359V87L75.8554 89.3148V89.3859L71 92V94.3641L78.0062 90.2568V88.4438Z" fill="white"/>
<path d="M80 95L80 97H88V95H80Z" fill="white"/>
<defs>
<linearGradient id="paint0_linear_1_54" x1="8" y1="70.6383" x2="120" y2="70.6383" gradientUnits="userSpaceOnUse">
<stop stop-color="#77767B"/>
<stop offset="0.05" stop-color="#C0BFBC"/>
<stop offset="0.1" stop-color="#9A9996"/>
<stop offset="0.899999" stop-color="#9A9996"/>
<stop offset="0.95" stop-color="#C0BFBC"/>
<stop offset="1" stop-color="#77767B"/>
</linearGradient>
<radialGradient id="paint1_radial_1_54" cx="0" cy="0" r="1" gradientUnits="userSpaceOnUse" gradientTransform="translate(64 96.7692) scale(226.909 58.1538)">
<stop stop-color="white"/>
<stop offset="1" stop-color="white" stop-opacity="0.0941176"/>
</radialGradient>
</defs>
</svg>